<svg width="150" height="35" viewBox="0 0 150 35" fill="none" xmlns="http://www.w3.org/2000/svg">
<path fill-rule="evenodd" clip-rule="evenodd" d="M132.875 23.6675H132.852C131.831 23.6675 131.111 22.8611 131.111 21.7937C131.111 20.7026 131.854 19.9199 132.875 19.9199C133.919 19.9199 134.638 20.6789 134.638 21.7937C134.638 22.8611 133.942 23.6675 132.875 23.6675Z" fill="#BD1C2B"/>
<path fill-rule="evenodd" clip-rule="evenodd" d="M37.6348 23.4068V6.56641H40.5122V13.4449H40.5586C40.9067 12.8993 41.394 12.425 41.9741 12.1166C42.531 11.7846 43.2039 11.5948 43.9233 11.5948C45.8493 11.5948 47.8681 12.8993 47.8681 16.5995V23.4068H45.0139V16.9315C45.0139 15.2475 44.4106 13.9904 42.8327 13.9904C41.7188 13.9904 40.9299 14.7494 40.6282 15.627C40.5354 15.8642 40.5122 16.1725 40.5122 16.5046V23.4068H37.6348ZM49.1908 11.8557H52.3234L54.3655 18.0463C54.5975 18.7579 54.8296 19.6355 54.992 20.2996H55.0616C55.2473 19.6355 55.4561 18.7816 55.6649 18.0226L57.4285 11.8557H60.4916L57.6606 19.7304C56.1058 24.0472 55.0616 25.9684 53.7157 27.1544C52.6019 28.1743 51.4417 28.5538 50.7223 28.6487L50.0726 26.1819C50.5599 26.0633 51.1632 25.8024 51.7433 25.3755C52.277 25.0197 52.9036 24.3318 53.298 23.5491C53.4141 23.3356 53.4837 23.1696 53.4837 23.0273C53.4837 22.9087 53.4605 22.7427 53.3212 22.458L49.1908 11.8557ZM62.1391 28.1031V15.6982C62.1391 14.1802 62.0927 12.9468 62.0463 11.8557H64.5524L64.6916 13.6346H64.738C65.5734 12.3301 66.8961 11.5948 68.6133 11.5948C71.2122 11.5948 73.3702 13.8718 73.3702 17.4771C73.3702 21.6516 70.7945 23.6677 68.2188 23.6677C66.8033 23.6677 65.6198 23.051 65.0397 22.126H64.9933V28.1031H62.1391ZM64.9933 16.7892V18.5681C64.9933 18.8528 65.0165 19.1137 65.0861 19.3746C65.3646 20.5605 66.3856 21.4144 67.5922 21.4144C69.4022 21.4144 70.4696 19.8727 70.4696 17.5957C70.4696 15.5559 69.495 13.8955 67.6619 13.8955C66.4784 13.8955 65.3878 14.7731 65.1093 16.0539C65.0397 16.2911 64.9933 16.552 64.9933 16.7892ZM80.8422 11.5948C84.2069 11.5948 86.4578 14.0141 86.4578 17.5245C86.4578 21.7702 83.534 23.6677 80.6566 23.6677C77.4543 23.6677 74.9946 21.4144 74.9946 17.7143C74.9946 13.9193 77.4311 11.5948 80.8422 11.5948ZM80.7726 13.7295C78.7538 13.7295 77.9416 15.7219 77.9416 17.6431C77.9416 19.8727 79.009 21.5567 80.7494 21.5567C82.3737 21.5567 83.5108 19.9201 83.5108 17.5957C83.5108 15.793 82.7218 13.7295 80.7726 13.7295ZM89.2888 9.72101L92.0734 8.89085V11.8557H94.7883V14.0378H92.0734V19.1374C92.0734 20.5368 92.4446 21.2721 93.5353 21.2721C94.069 21.2721 94.3242 21.2247 94.6491 21.1298L94.6955 23.3594C94.2778 23.5254 93.5353 23.6677 92.6303 23.6677C91.5861 23.6677 90.7043 23.2882 90.1706 22.6952C89.5672 22.0311 89.2888 20.9875 89.2888 19.4695V14.0378H87.6644V11.8557H89.2888V9.72101ZM96.9464 23.4068V6.56641H99.8238V13.4449H99.8702C100.218 12.8993 100.706 12.425 101.286 12.1166C101.843 11.7846 102.516 11.5948 103.235 11.5948C105.161 11.5948 107.18 12.8993 107.18 16.5995V23.4068H104.326V16.9315C104.326 15.2475 103.722 13.9904 102.144 13.9904C101.03 13.9904 100.241 14.7494 99.9398 15.627C99.847 15.8642 99.8238 16.1725 99.8238 16.5046V23.4068H96.9464ZM119.803 18.4496H112.238C112.308 20.5368 113.909 21.4381 115.719 21.4381C117.042 21.4381 117.993 21.2484 118.852 20.9163L119.269 22.9324C118.295 23.3356 116.949 23.6677 115.325 23.6677C111.658 23.6677 109.5 21.3433 109.5 17.8091C109.5 14.6071 111.403 11.5948 115.023 11.5948C118.713 11.5948 119.896 14.6783 119.896 17.2162C119.896 17.7617 119.85 18.1886 119.803 18.4496ZM112.238 16.4097H117.204C117.227 15.3424 116.763 13.5872 114.861 13.5872C113.097 13.5872 112.354 15.2238 112.238 16.4097ZM121.497 22.8375L122.054 20.7266C122.704 21.1298 123.934 21.5567 124.955 21.5567C126.208 21.5567 126.765 21.0349 126.765 20.2759C126.765 19.4932 126.301 19.09 124.908 18.5919C122.704 17.8091 121.776 16.5758 121.799 15.2238C121.799 13.184 123.446 11.5948 126.068 11.5948C127.322 11.5948 128.412 11.9269 129.062 12.2827L128.505 14.3462C128.018 14.0616 127.113 13.6821 126.115 13.6821C125.094 13.6821 124.537 14.1802 124.537 14.8917C124.537 15.627 125.071 15.9828 126.509 16.5046C128.551 17.2636 129.503 18.331 129.526 20.0387C129.526 22.126 127.925 23.6677 124.931 23.6677C123.562 23.6677 122.332 23.3119 121.497 22.8375ZM139.55 23.4068H136.673V11.8557H139.55V23.4068ZM138.112 7.04078C139.086 7.04078 139.69 7.72863 139.713 8.62995C139.713 9.50754 139.086 10.1954 138.089 10.1954C137.137 10.1954 136.511 9.50754 136.511 8.62995C136.511 7.72863 137.16 7.04078 138.112 7.04078ZM141.917 22.8375L142.474 20.7266C143.124 21.1298 144.354 21.5567 145.375 21.5567C146.628 21.5567 147.185 21.0349 147.185 20.2759C147.185 19.4932 146.721 19.09 145.329 18.5919C143.124 17.8091 142.196 16.5758 142.219 15.2238C142.219 13.184 143.867 11.5948 146.489 11.5948C147.742 11.5948 148.832 11.9269 149.482 12.2827L148.925 14.3462C148.438 14.0616 147.533 13.6821 146.535 13.6821C145.514 13.6821 144.957 14.1802 144.957 14.8917C144.957 15.627 145.491 15.9828 146.93 16.5046C148.972 17.2636 149.923 18.331 149.946 20.0387C149.946 22.126 148.345 23.6677 145.352 23.6677C143.983 23.6677 142.753 23.3119 141.917 22.8375Z" fill="#293041"/>
<path fill-rule="evenodd" clip-rule="evenodd" d="M18.3915 29.9607H26.869C28.2159 29.9607 29.3114 28.8429 29.3114 27.4642V2.49649C29.3114 1.11981 28.2179 0 26.869 0H2.44239C1.09555 0 0 1.11771 0 2.49649V27.4642C0 28.8408 1.09349 29.9607 2.44239 29.9607H10.9199L14.6557 34.9541L18.3915 29.9607Z" fill="#BD1C2B"/>
<path fill-rule="evenodd" clip-rule="evenodd" d="M23.2043 24.9507C24.5534 24.9507 25.647 23.8366 25.647 22.4622C25.647 21.0878 24.5534 19.9736 23.2043 19.9736C21.8553 19.9736 20.7617 21.0878 20.7617 22.4622C20.7617 23.8366 21.8553 24.9507 23.2043 24.9507Z" fill="white"/>
<path fill-rule="evenodd" clip-rule="evenodd" d="M8.5586 4.99365H4.88477V24.9674H8.5586V19.3534C8.5586 16.3647 9.77 15.2926 10.9913 14.9805C12.2126 14.6684 13.457 15.3684 13.457 17.4816V24.9674H17.1309V16.3647C17.1309 12.4838 14.6552 11.2393 12.2126 11.2393C9.78321 11.2393 8.5586 13.7346 8.5586 13.7346V4.99365Z" fill="white"/>
</svg>
